<svg width="11" height="11" viewBox="0 0 11 11" fill="none" xmlns="http://www.w3.org/2000/svg">
<path d="M10.2269 4.69597C9.68803 4.69629 9.15423 4.59135 8.65632 4.38723C8.15841 4.1831 7.70605 3.88377 7.32502 3.50634C6.944 3.1289 6.64166 2.68076 6.4355 2.18751C6.22888 1.69426 6.12304 1.16557 6.12304 0.631648C6.12304 0.420108 6.1396 0.208899 6.17366 0H5.59752C5.62928 0.20908 5.64539 0.420206 5.64585 0.631648C5.64585 1.70958 5.21373 2.74336 4.44478 3.50557C3.67537 4.26778 2.63214 4.69597 1.54429 4.69597C1.26956 4.69703 0.995766 4.67001 0.726562 4.61539V5.29714C0.934562 5.2665 1.14486 5.25122 1.35516 5.2514C1.96812 5.25076 2.57371 5.38637 3.12684 5.64817C3.67998 5.91001 4.16683 6.29145 4.55154 6.76437C4.93579 7.2373 5.20867 7.78969 5.34949 8.38088C5.4903 8.97207 5.49536 9.58701 5.36467 10.1804H6.22843C6.08485 9.52341 6.10786 8.84143 6.29561 8.19538C6.4829 7.54934 6.82895 6.95939 7.30293 6.47828C7.77646 5.99716 8.36318 5.63984 9.01065 5.43828C9.65766 5.23677 10.3452 5.19724 11.0115 5.32328V4.62409C10.7529 4.67305 10.4901 4.69712 10.2269 4.69597Z" fill="#213786"/>
</svg>
